<svg width="34" height="35" viewBox="0 0 34 35" fill="none" xmlns="http://www.w3.org/2000/svg">
<rect x="-0.00735474" y="0.919342" width="33.4113" height="33.4113" rx="5.56856" fill="#F5F7FA"/>
<g clip-path="url(#clip0_211_2521)">
<path d="M30.6173 10.2546C30.6173 10.2782 30.6173 10.3076 30.6112 10.3252C30.5805 10.5547 30.5805 10.7842 30.5989 11.0196C30.6112 11.0784 30.6234 11.1373 30.6725 11.1843C30.7522 11.2726 30.8747 11.2549 30.9238 11.149C30.9484 11.0961 30.9484 11.0431 30.9361 10.9902C30.8747 10.7666 30.8625 10.5312 30.8564 10.3017C30.8564 10.2899 30.8564 10.2723 30.8564 10.2546C30.9238 10.2488 30.9851 10.2429 31.0403 10.2429C31.0832 10.237 31.12 10.2311 31.1507 10.2134C31.2426 10.1664 31.2426 10.0663 31.1445 10.0193C31.1077 10.0016 31.0587 9.99573 31.0158 9.99573C30.8625 10.0016 30.7093 10.0016 30.556 10.0016C30.5008 10.0016 30.4456 10.0075 30.3904 10.0134C30.3598 10.0193 30.323 10.0193 30.2985 10.0369C30.2555 10.0546 30.231 10.084 30.231 10.1252C30.2372 10.1664 30.2555 10.1899 30.2985 10.2076C30.323 10.2252 30.3536 10.2311 30.3843 10.2311C30.4579 10.237 30.5376 10.2488 30.6173 10.2546ZM32.3032 10.5253C32.3032 10.5312 32.3094 10.5371 32.3094 10.5371C32.3339 10.6959 32.3584 10.8489 32.3768 11.0019C32.383 11.0549 32.3891 11.102 32.4259 11.1431C32.5056 11.2432 32.6282 11.2314 32.6833 11.1255C32.7079 11.0725 32.714 11.0196 32.7018 10.9607C32.665 10.7842 32.6466 10.6077 32.6098 10.437C32.5852 10.3311 32.5546 10.2311 32.524 10.137C32.5056 10.0781 32.4627 10.0369 32.3891 10.031C32.3155 10.0193 32.2603 10.0546 32.2297 10.1075C32.1929 10.1546 32.1622 10.2017 32.1377 10.2546C32.0948 10.3488 32.058 10.4429 32.009 10.5312C32.0028 10.5547 31.9967 10.5724 31.9844 10.59C31.9783 10.5783 31.9722 10.5724 31.9722 10.5724C31.8925 10.4253 31.8189 10.2782 31.7392 10.137C31.7269 10.1252 31.7208 10.1134 31.7147 10.1016C31.6779 10.0487 31.635 10.0193 31.5676 10.0193C31.5062 10.0251 31.4572 10.0605 31.4266 10.1134C31.4143 10.137 31.4143 10.1546 31.4081 10.1781C31.3836 10.3664 31.3529 10.5547 31.3285 10.743C31.3162 10.8489 31.31 10.9549 31.31 11.0608C31.3039 11.0843 31.31 11.1137 31.3223 11.1373C31.3346 11.1843 31.3714 11.2138 31.4204 11.2196C31.4817 11.2255 31.5246 11.2079 31.543 11.1608C31.5614 11.1255 31.5676 11.0961 31.5737 11.0667C31.5982 10.9607 31.6166 10.8607 31.635 10.7607C31.6472 10.7018 31.6534 10.6548 31.6718 10.59C31.684 10.6136 31.6963 10.6312 31.7086 10.6489C31.7637 10.7195 31.8189 10.7901 31.8863 10.8489C31.9538 10.896 32.009 10.8901 32.0641 10.8372C32.0764 10.8254 32.0825 10.8195 32.0948 10.8077C32.15 10.7254 32.2174 10.643 32.2726 10.5606C32.2849 10.5488 32.291 10.5371 32.3032 10.5253Z" fill="#3A3B7B"/>
<path d="M18.1771 10.3702C18.1345 10.4821 18.1263 10.5626 18.146 10.6296C18.1677 10.7207 18.2241 10.7505 18.3007 10.7273C19.0208 10.5564 20.5999 11.0415 21.1845 11.1767C21.3224 11.2051 21.4345 11.0343 21.3405 10.8811C21.2031 10.7328 19.6248 10.0978 19.0225 10.0632C18.7865 10.0503 18.3644 9.99225 18.1771 10.3702Z" fill="#3A3B7B"/>
<path d="M24.3484 8.31458C24.4251 8.35709 24.468 8.39765 24.4892 8.44296C24.5207 8.5024 24.5041 8.54352 24.4511 8.56451C23.9751 8.78748 23.3417 9.74742 23.086 10.0785C23.024 10.1547 22.881 10.1104 22.8594 9.98515C22.8639 9.84354 23.4254 8.80179 23.7387 8.51805C23.8619 8.40727 24.0653 8.18991 24.3484 8.31458Z" fill="#3A3B7B"/>
<path d="M20.5576 7.84207C20.6499 7.77537 20.7457 7.752 20.7946 7.79534C21.5128 8.38484 21.8936 9.31837 22.1295 10.173C22.1384 10.1929 22.1389 10.2215 22.1318 10.2513C22.1289 10.2768 22.1095 10.3037 22.0787 10.3245C22.0458 10.3475 22.0174 10.3545 22.0041 10.3347C21.6894 9.92376 19.8916 8.32498 20.5576 7.84207Z" fill="#3A3B7B"/>
<path d="M5.34907 18.0625C5.5212 17.9395 5.70833 17.8371 5.90635 17.7577C6.11353 17.7008 6.33436 17.7102 6.53546 17.7845C6.73652 17.8589 6.90697 17.994 7.02091 18.1695C7.12284 18.3446 7.16271 18.5467 7.13457 18.7454C7.10644 18.9441 7.0118 19.1287 6.86486 19.2713C6.75097 19.3869 6.62165 19.4876 6.48036 19.5709C5.85064 19.9613 5.21531 20.3304 4.58001 20.7208C4.45002 20.8185 4.31211 20.9062 4.16762 20.9829C3.94783 21.0881 3.69665 21.1163 3.45751 21.0626C3.21837 21.0089 3.00631 20.8766 2.858 20.6888C2.74713 20.5557 2.65356 20.4102 2.57935 20.2555C1.97749 19.0413 1.35333 17.8325 0.77375 16.597C0.506252 16.0621 0.288911 15.447 0.0771432 14.8533C-0.0144776 14.6808 -0.0323691 14.4808 0.0272784 14.2958C0.086926 14.1109 0.219406 13.9555 0.396539 13.8629C0.573673 13.7702 0.78148 13.7475 0.975772 13.7996C1.17006 13.8517 1.33551 13.9746 1.43692 14.1419C1.74862 14.5395 2.02455 14.9618 2.2617 15.4042C2.86357 16.474 3.43758 17.5437 4.01715 18.5813C4.0509 18.6387 4.08811 18.694 4.12861 18.7471C4.56484 18.5711 4.97513 18.3409 5.34907 18.0625Z" fill="#3A3B7B"/>
<path d="M11.572 17.6893C10.1955 19.2351 7.88837 18.8446 6.72922 16.8549C5.90443 15.4429 5.75954 13.1108 7.55402 11.6399C7.93721 11.332 8.39541 11.1222 8.88591 11.0302C9.48731 10.9474 10.1006 11.0493 10.638 11.3211C11.1755 11.593 11.6097 12.021 11.8786 12.5439C12.8594 14.2555 12.72 16.4377 11.572 17.6893ZM11.0147 14.0843C10.8685 13.6637 10.5751 13.3046 10.1844 13.068C9.96327 12.9168 9.69458 12.8432 9.42361 12.8598C9.15258 12.8763 8.89582 12.982 8.69644 13.159C7.89954 13.8383 7.73232 15.4482 8.3119 16.4056C8.38579 16.5618 8.49426 16.7005 8.62984 16.8122C8.76542 16.9238 8.92479 17.0057 9.09678 17.0521C9.26877 17.0984 9.44922 17.1082 9.62555 17.0806C9.80189 17.053 9.96976 16.9887 10.1175 16.8924C10.5495 16.5709 10.8664 16.1283 11.0242 15.626C11.1821 15.1237 11.1729 14.5867 10.9981 14.0897L11.0147 14.0843Z" fill="#3A3B7B"/>
<path d="M17.1894 14.7583C17.0485 14.7873 16.9029 14.7891 16.7613 14.7633C16.6197 14.7376 16.4848 14.685 16.3647 14.6085C16.2596 14.5508 16.1691 14.4715 16.0997 14.3762C16.0304 14.2809 15.984 14.1721 15.9637 14.0575C15.9434 13.9429 15.9499 13.8255 15.9826 13.7136C16.0153 13.6017 16.0735 13.4981 16.1529 13.4104C16.2912 13.234 16.4876 13.1078 16.7102 13.052C17.2913 12.8902 17.8894 12.7915 18.4935 12.7579C18.6262 12.743 18.7607 12.7538 18.889 12.7896C19.0173 12.8254 19.1369 12.8853 19.2407 12.9661C19.3445 13.0468 19.4305 13.1466 19.4936 13.2596C19.5567 13.3727 19.5956 13.4967 19.6081 13.6244C19.7822 14.2515 19.8013 14.9091 19.6638 15.5445C19.1622 17.5984 17.4346 18.3044 15.4953 17.6466C14.9509 17.4707 14.4736 17.1429 14.1244 16.7052C13.6586 16.1781 13.3284 15.5534 13.1603 14.8813C13.0241 14.2828 13.039 13.6618 13.2038 13.0701C13.3686 12.4783 13.6785 11.9329 14.1076 11.4795C14.5149 10.9867 15.0435 10.5989 15.6458 10.3509C16.0263 10.1496 16.4717 10.0924 16.8941 10.1905C16.9899 10.2159 17.0769 10.2655 17.146 10.3341C17.2151 10.4027 17.2639 10.4878 17.2872 10.5806C17.3105 10.6733 17.3075 10.7704 17.2786 10.8617C17.2496 10.953 17.1958 11.0352 17.1226 11.0998C16.9834 11.2207 16.8322 11.3282 16.6712 11.4207C16.1757 11.7235 15.7446 12.1137 15.4005 12.5706C15.175 12.8663 15.0197 13.2059 14.9456 13.5653C14.8715 13.9248 14.8803 14.2954 14.9715 14.6513C15.0978 15.1365 15.3783 15.572 15.7739 15.8975C17 16.9673 18.5938 15.935 18.3152 14.4748C17.9084 14.5711 17.5517 14.6727 17.1894 14.7583Z" fill="#3A3B7B"/>
<path d="M24.6795 17.7749C22.8683 18.8447 20.8064 17.7749 20.3549 15.5285C20.0261 13.9239 20.6503 11.6774 22.8349 10.8216C23.2997 10.6435 23.8038 10.5809 24.3005 10.6398C24.8973 10.7446 25.4448 11.0266 25.8657 11.4459C26.2866 11.8653 26.5598 12.4008 26.6467 12.9772C27.0145 14.8866 26.1786 16.9245 24.6795 17.7749ZM25.3092 14.1752C25.3087 13.7309 25.1449 13.301 24.8467 12.9611C24.6873 12.7509 24.4568 12.6003 24.1946 12.5349C23.9324 12.4696 23.6547 12.4935 23.4089 12.6028C22.428 13.0092 21.737 14.4855 21.9878 15.5713C22.007 15.7417 22.0646 15.906 22.1568 16.0528C22.249 16.1995 22.3736 16.3252 22.5217 16.421C22.6697 16.5167 22.8378 16.5803 23.0142 16.6072C23.1905 16.6341 23.3709 16.6238 23.5426 16.5768C24.0611 16.403 24.51 16.0781 24.8266 15.6476C25.1434 15.217 25.3121 14.7023 25.3092 14.1752Z" fill="#3A3B7B"/>
<path d="M28.4783 18.2242C28.4509 18.42 28.3437 18.5973 28.1802 18.7172C28.0166 18.837 27.8101 18.8896 27.6061 18.8634C27.4022 18.8372 27.2174 18.7342 27.0926 18.5772C26.9676 18.4203 26.9129 18.2221 26.9402 18.0263C26.9675 17.8306 27.0748 17.6532 27.2383 17.5334C27.4019 17.4135 27.6084 17.3609 27.8123 17.3872C28.0163 17.4134 28.201 17.5163 28.326 17.6733C28.4509 17.8303 28.5057 18.0285 28.4783 18.2242ZM27.9934 11.0088C28.0994 10.8535 28.2549 10.7351 28.4367 10.6715C28.6185 10.6079 28.8168 10.6024 29.0022 10.6558C29.1905 10.701 29.357 10.807 29.4737 10.956C29.5903 11.105 29.6501 11.2879 29.643 11.4742C29.6185 11.7729 29.5719 12.0696 29.5037 12.362C29.3198 13.3516 29.1415 14.341 28.9464 15.3199C28.8573 15.7103 28.7402 16.0847 28.612 16.4805C28.5675 16.6043 28.493 16.7161 28.3947 16.8068C28.3336 16.8751 28.2556 16.9274 28.1679 16.959C28.0801 16.9907 27.9855 17.0005 27.8927 16.9877C27.7999 16.9749 27.712 16.9399 27.637 16.8859C27.5621 16.8318 27.5026 16.7604 27.4641 16.6784C27.3978 16.5314 27.3618 16.3733 27.3582 16.2131C27.3582 15.5499 27.3582 14.8813 27.4027 14.2127C27.4785 13.2585 27.6275 12.311 27.8486 11.3779C27.8746 11.2529 27.9236 11.1333 27.9934 11.0249V11.0088Z" fill="#3A3B7B"/>
<path fill-rule="evenodd" clip-rule="evenodd" d="M2.99456 22.5223C2.92876 22.6633 2.91071 22.8205 2.94287 22.9717C2.96426 23.1711 3.01124 23.3673 3.08275 23.5556C3.17202 23.7863 3.27192 24.0144 3.3951 24.2955C3.42343 24.3602 3.45303 24.4278 3.484 24.4988C3.65011 24.8797 3.85854 25.3664 4.13655 26.0709C4.21524 26.271 4.28511 26.4728 4.35548 26.6759C4.3839 26.758 4.41243 26.8403 4.44163 26.9229C4.5463 27.2163 4.7264 27.4799 4.96513 27.6888C5.0665 27.8037 5.20096 27.8874 5.35173 27.9292C5.50545 27.9719 5.66893 27.9692 5.82101 27.9214C5.97309 27.8737 6.10666 27.7831 6.20439 27.6615C6.30019 27.5423 6.35717 27.3986 6.36824 27.2485C6.4304 26.956 6.40918 26.6528 6.30674 26.3709C6.14414 25.9028 5.95893 25.4341 5.74534 24.9756L5.74436 24.9736C5.393 24.2562 5.03584 23.5438 4.66179 22.8312L4.65899 22.8262C4.54948 22.6405 4.40718 22.4745 4.23846 22.3357C4.12893 22.2118 3.97785 22.1282 3.811 22.0994C3.64059 22.07 3.46485 22.0996 3.31513 22.1831C3.1735 22.2607 3.06123 22.3795 2.99456 22.5223Z" fill="#3A3B7B"/>
<path fill-rule="evenodd" clip-rule="evenodd" d="M8.36111 20.756C7.81018 20.619 7.23481 20.5991 6.6751 20.6975C6.24158 20.7385 5.8152 20.8345 5.51913 21.0246C5.36855 21.1214 5.2468 21.2456 5.17908 21.4035C5.11098 21.5623 5.10229 21.7439 5.15809 21.9462C5.25998 22.3168 5.39229 22.6771 5.52413 23.0363L5.54549 23.0945L5.546 23.0957C5.94298 24.1392 6.34374 25.1791 6.74815 26.2154C6.79531 26.3787 6.862 26.5363 6.94687 26.6849L6.94846 26.6876C7.06058 26.8722 7.20439 27.0373 7.37381 27.176C7.45854 27.2523 7.56332 27.305 7.67694 27.3286C7.79167 27.3524 7.91099 27.3455 8.0219 27.3086C8.13285 27.2718 8.23109 27.2064 8.30596 27.1196C8.37961 27.0342 8.42784 26.9314 8.44556 26.8219C8.51865 26.5245 8.49524 26.2128 8.3784 25.9285C8.34194 25.8329 8.31334 25.7351 8.2832 25.6322C8.27315 25.5979 8.26296 25.563 8.25221 25.5274C9.17791 25.1801 10.1629 24.7131 10.5092 23.6268C10.6449 23.2514 10.6562 22.8448 10.5416 22.4629C10.4269 22.0807 10.1916 21.7418 9.86806 21.4931C9.42776 21.1448 8.91343 20.8933 8.36111 20.756ZM6.834 22.0885C6.85223 22.0835 6.8706 22.0788 6.88901 22.0744C7.49167 21.9835 8.10826 22.1046 8.62526 22.4155C8.8531 22.5676 8.94643 22.7366 8.96246 22.8992C8.979 23.0666 8.91558 23.248 8.78818 23.4223C8.54744 23.7517 8.10812 24.0154 7.71129 24.0645C7.42199 23.4251 7.12821 22.7598 6.834 22.0885Z" fill="#3A3B7B"/>
<path d="M12.034 19.5856C12.6901 19.2948 13.5028 19.2445 14.1388 19.449C14.2989 19.4938 14.4379 19.5906 14.5319 19.723C14.6252 19.8545 14.6683 20.013 14.6539 20.1715C14.653 20.2743 14.6267 20.3755 14.5772 20.4668C14.5268 20.5598 14.4539 20.6397 14.3645 20.6999C14.2751 20.76 14.172 20.7987 14.0638 20.8125C13.9556 20.8264 13.8455 20.815 13.7428 20.7793L13.735 20.7766L13.7277 20.7729C13.6751 20.7465 13.6193 20.7267 13.5616 20.7137L13.558 20.713C13.1106 20.5989 12.6886 20.7879 12.5345 21.0201C12.461 21.1308 12.4519 21.2425 12.5131 21.3442C12.5787 21.453 12.7395 21.5752 13.0649 21.6623C13.1544 21.6859 13.2461 21.7086 13.3392 21.7318C13.5965 21.7957 13.8639 21.8621 14.1225 21.9542L14.1235 21.9546C15.3165 22.3902 15.7607 23.2925 15.6087 24.1411C15.4582 24.9804 14.728 25.7441 13.6298 25.9243C13.2302 26.0093 12.8143 25.9927 12.4234 25.8763C12.0315 25.7594 11.6782 25.5462 11.3987 25.2577L11.3914 25.2502C11.3031 25.1415 11.2438 25.0139 11.2175 24.8784C11.1933 24.7561 11.206 24.6298 11.2542 24.5142C11.302 24.3993 11.383 24.2999 11.4874 24.2275C11.5978 24.1454 11.7308 24.0961 11.87 24.0858C12.0088 24.0756 12.1476 24.1045 12.2695 24.169C12.3912 24.2255 12.5043 24.2974 12.606 24.383L12.6079 24.3846C12.7876 24.5424 13.0051 24.5835 13.2136 24.5454C13.4252 24.5068 13.6241 24.3866 13.7521 24.2272C13.8792 24.0688 13.9303 23.8806 13.8697 23.6979C13.8088 23.5139 13.6255 23.3077 13.2229 23.1354C13.1176 23.0925 13.0085 23.0579 12.895 23.0242C12.8644 23.0151 12.8332 23.0061 12.8017 22.9969C12.7178 22.9725 12.6314 22.9473 12.5467 22.9195C12.4884 22.9004 12.4306 22.8824 12.3733 22.8644C12.2166 22.8155 12.064 22.7678 11.917 22.7038C11.5972 22.5992 11.3209 22.3986 11.1292 22.1314C10.9368 21.8632 10.8399 21.5425 10.8531 21.2171C10.8541 20.4243 11.3745 19.878 12.034 19.5856Z" fill="#3A3B7B"/>
<path d="M20.3518 19.501C20.2246 19.4414 20.0839 19.4131 19.9425 19.4187C19.801 19.4242 19.6632 19.4635 19.5416 19.533C19.4207 19.602 19.3194 19.6986 19.2469 19.8143C19.1804 19.9117 19.1344 20.0206 19.1114 20.135C19.0885 20.2493 19.089 20.3667 19.113 20.4807C19.1367 20.6272 19.163 20.7697 19.1889 20.9103C19.2319 21.1428 19.2736 21.3701 19.3012 21.6019L19.3022 21.6078C19.365 21.9713 19.3979 22.3389 19.4008 22.7073L19.4011 22.7125C19.4225 23.1104 19.2813 23.5004 19.0077 23.8L19.0033 23.8053C18.9143 23.9149 18.7953 23.9984 18.6595 24.0468C18.5238 24.0951 18.3767 24.1062 18.2348 24.0788C18.0929 24.0515 17.9617 23.9868 17.8559 23.892C17.7501 23.7971 17.6737 23.6756 17.6356 23.5416C17.5543 23.2591 17.5073 22.9685 17.4953 22.6758L17.6342 20.5533C17.6362 20.5256 17.6386 20.4972 17.641 20.4685C17.6463 20.404 17.6517 20.3384 17.6539 20.2771C17.6572 20.187 17.6544 20.0943 17.6325 20.0066C17.6101 19.917 17.5675 19.8317 17.492 19.7591C17.4172 19.6872 17.3163 19.6341 17.1893 19.598C16.9596 19.5342 16.7653 19.5362 16.6035 19.6022C16.4415 19.6681 16.3306 19.7905 16.2521 19.9319C16.1742 20.0721 16.1241 20.2381 16.0862 20.4043C16.0582 20.5277 16.0356 20.6572 16.0141 20.7805C16.0067 20.823 15.9995 20.8647 15.9921 20.9052L15.9919 20.9064C15.8771 21.5824 15.843 22.2688 15.8901 22.9523C15.8989 23.3217 15.9791 23.6863 16.1268 24.0274C16.2934 24.4677 16.5952 24.8491 16.9923 25.1214C17.3903 25.3942 17.8652 25.5446 18.3541 25.5525C18.8431 25.5604 19.323 25.4256 19.7304 25.1659C20.1371 24.9065 20.4522 24.5348 20.6342 24.1C20.8888 23.546 21.0083 22.9435 20.9837 22.3385C20.9687 21.8968 20.9437 21.4517 20.9188 21.0089C20.9065 20.7916 20.8943 20.5749 20.8834 20.3594C20.8779 20.1434 20.8036 19.9341 20.6706 19.7598C20.5883 19.6495 20.4788 19.5606 20.3518 19.501Z" fill="#3A3B7B"/>
<path d="M24.8544 22.829C24.8415 22.8447 24.8279 22.861 24.8137 22.878C24.7102 22.305 24.6143 21.7323 24.5183 21.1587C24.4839 20.9529 24.4492 20.7462 24.4144 20.5401L24.4105 20.5172L24.3978 20.4973C24.3738 20.4599 24.3714 20.4233 24.3714 20.3451V20.336L24.37 20.3271C24.344 20.1657 24.2679 20.0154 24.1517 19.896C24.0358 19.777 23.8852 19.6941 23.7196 19.6582C23.5543 19.619 23.3806 19.6276 23.2203 19.683C23.0605 19.7382 22.9212 19.8374 22.8198 19.9681C22.7355 20.0684 22.6663 20.1797 22.6146 20.2986C22.497 20.5548 22.3784 20.8116 22.2595 21.0692L22.2575 21.0736C21.9607 21.7165 21.6618 22.3637 21.3717 23.016L21.3708 23.0181C21.1927 23.441 21.0457 23.8867 20.8992 24.3309C20.8699 24.4196 20.8406 24.5083 20.8111 24.5967C20.7582 24.7369 20.7351 24.8858 20.7431 25.0347C20.7334 25.1679 20.7667 25.3009 20.8383 25.4155C20.9114 25.5325 21.0209 25.6245 21.1514 25.6787C21.2896 25.7369 21.4442 25.7492 21.5906 25.7138C21.7367 25.6785 21.8664 25.5975 21.9594 25.4837C22.0781 25.3436 22.1802 25.1907 22.2635 25.0288C22.5093 24.5462 22.7442 24.0578 22.978 23.5715C23.0685 23.3834 23.1564 23.215 23.2564 23.0315C23.2633 23.0541 23.2703 23.0762 23.2776 23.0983C23.3824 23.5413 23.5593 23.9655 23.8018 24.3556C23.8477 24.4382 23.9117 24.5104 23.9892 24.5673C24.0678 24.6248 24.1584 24.6652 24.2548 24.6857C24.3512 24.7062 24.4511 24.7063 24.5476 24.6859C24.6439 24.6657 24.7348 24.6252 24.8134 24.568L24.9689 24.4563L26.1757 23.4806L26.1044 23.9171C26.0064 24.5172 25.9092 25.1122 25.8059 25.7074C25.7383 25.9711 25.7384 26.2467 25.8062 26.5104C25.8356 26.6588 25.9103 26.7954 26.021 26.9029C26.1326 27.0112 26.2755 27.0848 26.4313 27.1141C26.587 27.1435 26.7483 27.1272 26.8943 27.0674C27.0381 27.0086 27.1605 26.9101 27.246 26.7846C27.445 26.5477 27.5689 26.2608 27.6029 25.9582C27.6541 25.5308 27.712 25.0976 27.7699 24.6645C27.8366 24.1653 27.9033 23.6662 27.9596 23.1768L27.9598 23.1752C28.014 22.6394 28.0402 22.1014 28.0384 21.5631C28.0502 21.393 28.0061 21.2235 27.9121 21.0787C27.8177 20.9334 27.678 20.8204 27.5128 20.7557C27.341 20.6808 27.1487 20.6607 26.9641 20.6986C26.7808 20.7362 26.6148 20.829 26.4903 20.9634C26.2677 21.161 26.0589 21.3724 25.8652 21.5963L25.8639 21.5978C25.6524 21.8508 25.4424 22.1086 25.2337 22.3649C25.1068 22.5206 24.9803 22.676 24.8544 22.829Z" fill="#3A3B7B"/>
</g>
<defs>
<clipPath id="clip0_211_2521">
<rect width="32.7153" height="20.186" fill="white" transform="translate(-0.00732422 7.77338)"/>
</clipPath>
</defs>
</svg>
