<svg width="34" height="35" viewBox="0 0 34 35" fill="none" xmlns="http://www.w3.org/2000/svg">
<rect x="0.0922852" y="0.919342" width="33.4113" height="33.4113" rx="5.56856" fill="#F5F7FA"/>
<g clip-path="url(#clip0_211_2514)">
<path fill-rule="evenodd" clip-rule="evenodd" d="M7.12127 10.6374L0.170471 17.5183C1.56076 18.8947 3.14895 20.0546 4.88052 20.9621C5.35914 22.2189 6.10936 23.3976 7.13117 24.4091C10.9755 28.2147 17.2083 28.2147 21.0526 24.4091C22.0744 23.3976 22.8246 22.2189 23.3032 20.962C25.0348 20.0546 26.623 18.8947 28.0133 17.5183L21.0681 10.643C21.0629 10.6379 21.0578 10.6327 21.0526 10.6276C17.2083 6.82197 10.9755 6.82197 7.13117 10.6276C7.12787 10.6309 7.12457 10.6342 7.12127 10.6374ZM20.3875 22.2035C18.3619 22.8802 16.2355 23.2268 14.0919 23.2268C11.9482 23.2268 9.82189 22.8802 7.79633 22.2035C8.0158 22.4918 8.2581 22.7684 8.5233 23.0309C11.5987 26.0755 16.585 26.0755 19.6604 23.0309C19.9256 22.7684 20.168 22.4918 20.3875 22.2035ZM8.66607 11.8679C9.18833 12.2095 9.74365 12.5018 10.3247 12.7401C11.519 13.2298 12.7991 13.4819 14.0919 13.4819C15.3846 13.4819 16.6647 13.2298 17.859 12.7401C18.4401 12.5018 18.9954 12.2095 19.5177 11.8679C16.4806 9.00718 11.7031 9.00719 8.66607 11.8679Z" fill="#3B4158"/>
</g>
<defs>
<clipPath id="clip0_211_2514">
<rect width="27.8428" height="19.4899" fill="white" transform="translate(0.170471 7.77338)"/>
</clipPath>
</defs>
</svg>
