<svg width="38" height="35" viewBox="0 0 38 35" fill="none" xmlns="http://www.w3.org/2000/svg">
<rect x="0.893005" y="0.919342" width="33.4113" height="33.4113" rx="5.56856" fill="#F5F7FA"/>
<g clip-path="url(#clip0_211_2541)">
<path d="M9.4847 10.5576C8.07117 10.5576 6.71555 11.1192 5.71604 12.1187L2.45405 15.3807C1.45454 16.3802 0.893021 17.7358 0.893021 19.1493C0.893021 22.0929 3.27921 24.479 6.22273 24.479C7.63626 24.479 8.99188 23.9175 9.99139 22.918L12.2477 20.6617C12.2477 20.6616 12.2478 20.6617 12.2477 20.6617L18.8219 14.0875C19.2993 13.6101 19.9467 13.3419 20.6218 13.3419C21.752 13.3419 22.7102 14.0786 23.0425 15.0979L25.1173 13.0231C24.1707 11.5407 22.5111 10.5576 20.6218 10.5576C19.2083 10.5576 17.8527 11.1192 16.8531 12.1187L8.02263 20.9492C7.54526 21.4266 6.89783 21.6948 6.22273 21.6948C4.81692 21.6948 3.6773 20.5552 3.6773 19.1493C3.6773 18.4742 3.94548 17.8268 4.42284 17.3494L7.6848 14.0875C8.16217 13.6101 8.8096 13.3419 9.4847 13.3419C10.615 13.3419 11.5731 14.0786 11.9053 15.098L13.9802 13.0232C13.0337 11.5407 11.374 10.5576 9.4847 10.5576Z" fill="#394149"/>
<path d="M19.1598 20.9492C18.6824 21.4266 18.035 21.6948 17.3599 21.6948C16.2298 21.6948 15.2717 20.9583 14.9394 19.9391L12.8646 22.0139C13.8112 23.4961 15.4708 24.479 17.3599 24.479C18.7734 24.479 20.129 23.9175 21.1285 22.918L29.9591 14.0875C30.4364 13.6101 31.0839 13.3419 31.759 13.3419C33.1648 13.3419 34.3044 14.4815 34.3044 15.8874C34.3044 16.5625 34.0362 17.2099 33.5589 17.6873L30.2969 20.9492C29.8195 21.4266 29.1721 21.6948 28.497 21.6948C27.3668 21.6948 26.4087 20.9582 26.0764 19.9389L24.0016 22.0137C24.9482 23.4961 26.6078 24.479 28.497 24.479C29.9105 24.479 31.2661 23.9175 32.2657 22.918L35.5276 19.656C36.5271 18.6565 37.0887 17.3009 37.0887 15.8874C37.0887 12.9438 34.7025 10.5576 31.759 10.5576C30.3454 10.5576 28.9898 11.1192 27.9903 12.1187L19.1598 20.9492Z" fill="#394149"/>
</g>
<defs>
<clipPath id="clip0_211_2541">
<rect width="36.1956" height="13.9214" fill="white" transform="translate(0.893021 10.5576)"/>
</clipPath>
</defs>
</svg>
