<svg width="34" height="34" viewBox="0 0 34 34" fill="none" xmlns="http://www.w3.org/2000/svg">
<mask id="path-1-inside-1_211_2338" fill="white">
<path d="M20.0112 16.7646C19.8436 16.7646 19.6879 16.7185 19.5497 16.6444V16.6463C19.5497 16.91 19.4472 17.1577 19.2612 17.3431C19.0753 17.5291 18.8278 17.6316 18.5644 17.6316C18.3944 17.6316 18.2368 17.5844 18.097 17.5083C18.0829 17.7495 17.9865 17.975 17.8145 18.1472C17.6285 18.3332 17.381 18.4357 17.1175 18.4357C16.5938 18.4357 16.1686 18.024 16.138 17.5081C15.9759 17.5957 15.7927 17.6416 15.6038 17.6295C15.0887 17.5957 14.6853 17.1506 14.6853 16.616V12.1844L14.1807 13.0586C13.9885 13.393 13.6287 13.6006 13.2413 13.6006C13.0526 13.6006 12.8661 13.5511 12.701 13.4564C12.4953 13.3372 12.3482 13.1458 12.287 12.9169C12.2256 12.6878 12.2574 12.4482 12.3763 12.2429C12.3764 12.2429 14.0273 9.38395 14.128 9.20834C14.14 9.18194 14.1741 9.10536 14.2032 9.04009C14.2309 8.97777 14.2547 8.91381 14.2774 8.84953C14.7753 7.44397 16.0081 6.57087 17.4948 6.57087C19.4255 6.57087 20.9962 8.27408 20.9962 10.3676L20.9964 15.7791C20.9964 16.0425 20.894 16.29 20.7082 16.4761C20.5223 16.6621 20.2748 16.7646 20.0111 16.7646L20.0112 16.7646ZM17.4948 7.09441C16.2173 7.09441 15.1991 7.816 14.7709 9.02462C14.7435 9.10137 14.715 9.17811 14.6817 9.2529C14.5851 9.46953 14.5851 9.46953 14.5579 9.50069L14.5543 9.49757C14.4195 9.75192 14.019 10.4454 12.8296 12.5049C12.7807 12.5893 12.7677 12.6874 12.7927 12.7812C12.8179 12.875 12.8784 12.954 12.9622 13.0024C13.2223 13.1518 13.5785 13.0554 13.7268 12.7971L14.7204 11.0768C14.7798 10.9743 14.8998 10.924 15.0149 10.9551C15.1294 10.9858 15.2089 11.0896 15.2089 11.208V16.6161C15.2089 16.8713 15.4015 17.0915 15.6381 17.1071C15.7746 17.1143 15.9018 17.0686 15.9974 16.9731C16.0844 16.8862 16.1322 16.7704 16.1322 16.6466V13.1096C16.1322 12.965 16.2495 12.8477 16.3941 12.8477C16.5388 12.8477 16.656 12.9648 16.656 13.1096L16.6559 17.4506C16.6559 17.7051 16.863 17.9122 17.1175 17.9122C17.2412 17.9122 17.3573 17.8643 17.4443 17.7774C17.5313 17.6903 17.5791 17.5742 17.5791 17.4506V13.1096C17.5791 12.965 17.6962 12.8477 17.841 12.8477C17.9857 12.8477 18.1029 12.9648 18.1029 13.1096L18.1028 16.6059V16.6466C18.1028 16.901 18.3099 17.1081 18.5646 17.1081C18.6881 17.1081 18.8038 17.06 18.8914 16.9728C18.9783 16.886 19.0262 16.7703 19.0262 16.6464V13.1094C19.0262 12.9648 19.1433 12.8476 19.2881 12.8476C19.4328 12.8476 19.55 12.9646 19.55 13.1094L19.5497 15.7793C19.5497 16.0339 19.7568 16.2411 20.0111 16.2411C20.135 16.2411 20.2507 16.193 20.3377 16.1063C20.4249 16.019 20.4726 15.9029 20.4726 15.7793L20.4728 10.3678C20.4728 8.56304 19.1369 7.09446 17.4948 7.09446L17.4948 7.09441Z"/>
</mask>
<path d="M20.0112 16.7646C19.8436 16.7646 19.6879 16.7185 19.5497 16.6444V16.6463C19.5497 16.91 19.4472 17.1577 19.2612 17.3431C19.0753 17.5291 18.8278 17.6316 18.5644 17.6316C18.3944 17.6316 18.2368 17.5844 18.097 17.5083C18.0829 17.7495 17.9865 17.975 17.8145 18.1472C17.6285 18.3332 17.381 18.4357 17.1175 18.4357C16.5938 18.4357 16.1686 18.024 16.138 17.5081C15.9759 17.5957 15.7927 17.6416 15.6038 17.6295C15.0887 17.5957 14.6853 17.1506 14.6853 16.616V12.1844L14.1807 13.0586C13.9885 13.393 13.6287 13.6006 13.2413 13.6006C13.0526 13.6006 12.8661 13.5511 12.701 13.4564C12.4953 13.3372 12.3482 13.1458 12.287 12.9169C12.2256 12.6878 12.2574 12.4482 12.3763 12.2429C12.3764 12.2429 14.0273 9.38395 14.128 9.20834C14.14 9.18194 14.1741 9.10536 14.2032 9.04009C14.2309 8.97777 14.2547 8.91381 14.2774 8.84953C14.7753 7.44397 16.0081 6.57087 17.4948 6.57087C19.4255 6.57087 20.9962 8.27408 20.9962 10.3676L20.9964 15.7791C20.9964 16.0425 20.894 16.29 20.7082 16.4761C20.5223 16.6621 20.2748 16.7646 20.0111 16.7646L20.0112 16.7646ZM17.4948 7.09441C16.2173 7.09441 15.1991 7.816 14.7709 9.02462C14.7435 9.10137 14.715 9.17811 14.6817 9.2529C14.5851 9.46953 14.5851 9.46953 14.5579 9.50069L14.5543 9.49757C14.4195 9.75192 14.019 10.4454 12.8296 12.5049C12.7807 12.5893 12.7677 12.6874 12.7927 12.7812C12.8179 12.875 12.8784 12.954 12.9622 13.0024C13.2223 13.1518 13.5785 13.0554 13.7268 12.7971L14.7204 11.0768C14.7798 10.9743 14.8998 10.924 15.0149 10.9551C15.1294 10.9858 15.2089 11.0896 15.2089 11.208V16.6161C15.2089 16.8713 15.4015 17.0915 15.6381 17.1071C15.7746 17.1143 15.9018 17.0686 15.9974 16.9731C16.0844 16.8862 16.1322 16.7704 16.1322 16.6466V13.1096C16.1322 12.965 16.2495 12.8477 16.3941 12.8477C16.5388 12.8477 16.656 12.9648 16.656 13.1096L16.6559 17.4506C16.6559 17.7051 16.863 17.9122 17.1175 17.9122C17.2412 17.9122 17.3573 17.8643 17.4443 17.7774C17.5313 17.6903 17.5791 17.5742 17.5791 17.4506V13.1096C17.5791 12.965 17.6962 12.8477 17.841 12.8477C17.9857 12.8477 18.1029 12.9648 18.1029 13.1096L18.1028 16.6059V16.6466C18.1028 16.901 18.3099 17.1081 18.5646 17.1081C18.6881 17.1081 18.8038 17.06 18.8914 16.9728C18.9783 16.886 19.0262 16.7703 19.0262 16.6464V13.1094C19.0262 12.9648 19.1433 12.8476 19.2881 12.8476C19.4328 12.8476 19.55 12.9646 19.55 13.1094L19.5497 15.7793C19.5497 16.0339 19.7568 16.2411 20.0111 16.2411C20.135 16.2411 20.2507 16.193 20.3377 16.1063C20.4249 16.019 20.4726 15.9029 20.4726 15.7793L20.4728 10.3678C20.4728 8.56304 19.1369 7.09446 17.4948 7.09446L17.4948 7.09441Z" fill="#4CAF4F"/>
<path d="M20.0112 16.7646V15.8365H23.2902L20.4976 17.555L20.0112 16.7646ZM19.5497 16.6444H18.6216V15.0936L19.9883 15.8264L19.5497 16.6444ZM19.2612 17.3431L18.605 16.6869L18.6058 16.686L19.2612 17.3431ZM18.097 17.5083L17.1705 17.4541L17.2559 15.9934L18.5409 16.6932L18.097 17.5083ZM17.8145 18.1472L18.4711 18.8031L18.4707 18.8035L17.8145 18.1472ZM16.138 17.5081L15.6967 16.6916L16.978 15.9991L17.0644 17.4531L16.138 17.5081ZM15.6038 17.6295L15.5443 18.5557L15.5431 18.5556L15.6038 17.6295ZM14.6853 12.1844L13.8815 11.7204L15.6134 8.71998V12.1844H14.6853ZM14.1807 13.0586L13.376 12.5961L13.3769 12.5946L14.1807 13.0586ZM12.701 13.4564L12.2395 14.2617L12.2355 14.2593L12.701 13.4564ZM12.287 12.9169L13.1834 12.6763L13.1837 12.6773L12.287 12.9169ZM12.3763 12.2429L11.5731 11.7778L11.8412 11.3148H12.3763V12.2429ZM14.128 9.20834L14.9733 9.5916L14.9551 9.63179L14.9331 9.67007L14.128 9.20834ZM14.2032 9.04009L13.3551 8.66296L13.3551 8.66295L14.2032 9.04009ZM14.2774 8.84953L15.1523 9.1594L15.1522 9.15966L14.2774 8.84953ZM20.9962 10.3676L20.0681 10.3677V10.3676H20.9962ZM20.9964 15.7791L21.9245 15.7791V15.7791H20.9964ZM20.7082 16.4761L21.3651 17.1318L21.3645 17.1324L20.7082 16.4761ZM20.0111 16.7646V17.6927H16.7321L19.5247 15.9742L20.0111 16.7646ZM17.4948 7.09441V6.16632H18.7252L18.3872 7.34938L17.4948 7.09441ZM14.7709 9.02462L15.6457 9.33454L15.645 9.33654L14.7709 9.02462ZM14.6817 9.2529L15.5296 9.63035L15.5294 9.63084L14.6817 9.2529ZM14.5579 9.50069L15.2568 10.1113L14.6496 10.8062L13.9513 10.2031L14.5579 9.50069ZM14.5543 9.49757L13.7342 9.06297L14.2796 8.03401L15.1609 8.79517L14.5543 9.49757ZM12.8296 12.5049L13.6333 12.969L13.6329 12.9697L12.8296 12.5049ZM12.7927 12.7812L11.8965 13.0225L11.8957 13.0196L12.7927 12.7812ZM12.9622 13.0024L12.5 13.8072L12.4982 13.8062L12.9622 13.0024ZM13.7268 12.7971L12.9218 12.3351L12.9231 12.3329L13.7268 12.7971ZM14.7204 11.0768L13.9167 10.6126L13.9173 10.6116L14.7204 11.0768ZM15.0149 10.9551L14.7748 11.8516L14.7725 11.851L15.0149 10.9551ZM15.6381 17.1071L15.5891 18.034L15.5772 18.0332L15.6381 17.1071ZM15.9974 16.9731L16.6537 17.6294L16.6531 17.63L15.9974 16.9731ZM16.656 13.1096H17.5841V13.1097L16.656 13.1096ZM16.6559 17.4506H15.7278V17.4505L16.6559 17.4506ZM17.4443 17.7774L18.1012 18.4331L18.1 18.4343L17.4443 17.7774ZM18.1029 13.1096H19.031V13.1097L18.1029 13.1096ZM18.1028 16.6059H17.1747V16.6059L18.1028 16.6059ZM18.8914 16.9728L19.5471 17.6297L19.5464 17.6303L18.8914 16.9728ZM19.55 13.1094H20.4781V13.1096L19.55 13.1094ZM19.5497 15.7793H18.6216V15.7791L19.5497 15.7793ZM20.3377 16.1063L20.9939 16.7625L20.9933 16.7631L20.3377 16.1063ZM20.4726 15.7793H19.5445V15.7792L20.4726 15.7793ZM20.4728 10.3678H21.4009V10.3678L20.4728 10.3678ZM17.4948 7.09446V8.02256H16.2644L16.6024 6.8395L17.4948 7.09446ZM20.0112 17.6927C19.6694 17.6927 19.3643 17.598 19.1111 17.4623L19.9883 15.8264C20.0003 15.8329 20.0079 15.8353 20.0109 15.8361C20.0135 15.8368 20.0131 15.8365 20.0112 15.8365V17.6927ZM20.4778 16.6444V16.6463H18.6216V16.6444H20.4778ZM20.4778 16.6463C20.4778 17.1554 20.278 17.6398 19.9166 18.0003L18.6058 16.686C18.6125 16.6794 18.6158 16.6737 18.6177 16.6691C18.6196 16.6644 18.6216 16.6573 18.6216 16.6463H20.4778ZM19.9175 17.9994C19.5573 18.3596 19.0737 18.5597 18.5644 18.5597V16.7035C18.5751 16.7035 18.5821 16.7016 18.5868 16.6996C18.5916 16.6976 18.5977 16.6941 18.605 16.6869L19.9175 17.9994ZM18.5644 18.5597C18.2182 18.5597 17.9093 18.4628 17.6532 18.3234L18.5409 16.6932C18.553 16.6998 18.5606 16.7023 18.5637 16.7031C18.5663 16.7038 18.5661 16.7035 18.5644 16.7035V18.5597ZM19.0235 17.5624C18.9968 18.0193 18.8115 18.4623 18.4711 18.8031L17.1579 17.4913C17.1613 17.4878 17.1633 17.4848 17.165 17.481C17.1668 17.4768 17.1697 17.4683 17.1705 17.4541L19.0235 17.5624ZM18.4707 18.8035C18.1105 19.1637 17.6269 19.3638 17.1175 19.3638V17.5076C17.1283 17.5076 17.1354 17.5056 17.1401 17.5037C17.1448 17.5017 17.151 17.4982 17.1582 17.4909L18.4707 18.8035ZM17.1175 19.3638C16.0929 19.3638 15.2707 18.5596 15.2115 17.5632L17.0644 17.4531C17.0654 17.4689 17.0718 17.4827 17.0832 17.4936C17.0888 17.4989 17.0945 17.5023 17.0994 17.5044C17.1037 17.5061 17.1092 17.5076 17.1175 17.5076V19.3638ZM16.5792 18.3246C16.2795 18.4866 15.924 18.58 15.5443 18.5557L15.6633 16.7033C15.6633 16.7033 15.6653 16.7035 15.6702 16.7023C15.6754 16.7011 15.6845 16.6982 15.6967 16.6916L16.5792 18.3246ZM15.5431 18.5556C14.5126 18.488 13.7572 17.6116 13.7572 16.616H15.6134C15.6134 16.6474 15.6248 16.6715 15.6391 16.6873C15.653 16.7026 15.6624 16.7032 15.6646 16.7034L15.5431 18.5556ZM13.7572 16.616V12.1844H15.6134V16.616H13.7572ZM15.4891 12.6483L14.9845 13.5226L13.3769 12.5946L13.8815 11.7204L15.4891 12.6483ZM14.9853 13.5211C14.6267 14.145 13.9591 14.5287 13.2413 14.5287V12.6725C13.2982 12.6725 13.3502 12.6409 13.376 12.5961L14.9853 13.5211ZM13.2413 14.5287C12.8903 14.5287 12.5449 14.4366 12.2395 14.2617L13.1624 12.6512C13.1873 12.6655 13.2148 12.6725 13.2413 12.6725V14.5287ZM12.2355 14.2593C11.8188 14.0178 11.5155 13.6247 11.3904 13.1564L13.1837 12.6773C13.1828 12.6741 13.1805 12.6685 13.1761 12.6627C13.1716 12.6569 13.1675 12.6541 13.1665 12.6535L12.2355 14.2593ZM11.3907 13.1575C11.2651 12.6896 11.3308 12.1962 11.5731 11.7778L13.1794 12.7079C13.1807 12.7056 13.1831 12.7003 13.1841 12.6928C13.1851 12.6853 13.1842 12.6793 13.1834 12.6763L11.3907 13.1575ZM12.3763 11.3148C11.921 11.4341 11.5802 11.7657 11.5777 11.77C11.5768 11.7714 11.5756 11.7735 11.5752 11.7742C11.5749 11.7746 11.5745 11.7753 11.5744 11.7755C11.5743 11.7757 11.5742 11.776 11.5741 11.776C11.574 11.7763 11.574 11.7762 11.5744 11.7756C11.575 11.7745 11.5761 11.7727 11.5776 11.77C11.5807 11.7647 11.5852 11.7568 11.5913 11.7463C11.6034 11.7254 11.6211 11.6947 11.6438 11.6554C11.6891 11.577 11.754 11.4646 11.8322 11.3293C11.9885 11.0585 12.198 10.6957 12.4107 10.3274C12.8367 9.58953 13.2735 8.83288 13.323 8.74662L14.9331 9.67007C14.8819 9.75942 14.4428 10.52 14.0182 11.2555C13.8055 11.6239 13.596 11.9868 13.4396 12.2575C13.3614 12.3929 13.2965 12.5053 13.2511 12.5839C13.2284 12.6232 13.2106 12.654 13.1984 12.6751C13.1923 12.6856 13.1876 12.6937 13.1844 12.6993C13.1828 12.702 13.1815 12.7043 13.1805 12.706C13.1801 12.7067 13.1795 12.7077 13.179 12.7086C13.1788 12.709 13.1782 12.71 13.1775 12.7112C13.177 12.712 13.1757 12.7142 13.1749 12.7157C13.1723 12.72 12.8315 13.0516 12.3763 13.1709V11.3148ZM13.2828 8.82508C13.293 8.80255 13.3254 8.72991 13.3551 8.66296L15.0512 9.41721C15.0229 9.48081 14.987 9.56133 14.9733 9.5916L13.2828 8.82508ZM13.3551 8.66295C13.368 8.63395 13.3823 8.59689 13.4027 8.5394L15.1522 9.15966C15.127 9.23074 15.0937 9.32159 15.0512 9.41723L13.3551 8.66295ZM13.4026 8.53965C14.0312 6.76504 15.6134 5.64277 17.4948 5.64277V7.49896C16.4028 7.49896 15.5194 8.1229 15.1523 9.1594L13.4026 8.53965ZM17.4948 5.64277C20.0074 5.64277 21.9243 7.83371 21.9243 10.3676H20.0681C20.0681 8.71445 18.8436 7.49896 17.4948 7.49896V5.64277ZM21.9243 10.3676L21.9245 15.7791L20.0683 15.7792L20.0681 10.3677L21.9243 10.3676ZM21.9245 15.7791C21.9245 16.2881 21.7248 16.7714 21.3651 17.1318L20.0514 15.8205C20.0587 15.8131 20.0623 15.8069 20.0643 15.802C20.0663 15.7971 20.0683 15.79 20.0683 15.7791H21.9245ZM21.3645 17.1324C21.0042 17.4927 20.5206 17.6927 20.0111 17.6927V15.8365C20.022 15.8365 20.0292 15.8345 20.0339 15.8325C20.0386 15.8306 20.0447 15.8271 20.052 15.8199L21.3645 17.1324ZM19.5247 15.9742L19.5248 15.9741L20.4976 17.555L20.4975 17.555L19.5247 15.9742ZM17.4948 8.0225C16.6124 8.0225 15.9433 8.49454 15.6457 9.33454L13.8961 8.7147C14.4549 7.13745 15.8222 6.16632 17.4948 6.16632V8.0225ZM15.645 9.33654C15.6157 9.41863 15.5777 9.52232 15.5296 9.63035L13.8338 8.87544C13.8523 8.83391 13.8713 8.7841 13.8968 8.7127L15.645 9.33654ZM15.5294 9.63084C15.4869 9.72616 15.4512 9.80666 15.424 9.86119C15.4071 9.89503 15.3797 9.94719 15.34 10.005C15.2998 10.0635 15.26 10.1076 15.2568 10.1113L13.859 8.89003C13.8612 8.88754 13.8605 8.88835 13.8594 8.88963C13.8579 8.89127 13.8543 8.89548 13.8496 8.90125C13.8447 8.90722 13.8385 8.91494 13.8316 8.92412C13.8245 8.93338 13.8174 8.94323 13.8103 8.95362C13.7957 8.97478 13.7845 8.99331 13.7766 9.00733C13.7691 9.02041 13.7646 9.02946 13.7636 9.0315C13.7625 9.03361 13.7632 9.03237 13.7663 9.02562C13.7694 9.01908 13.7737 9.00965 13.7799 8.99594C13.7861 8.98234 13.7934 8.96592 13.8025 8.94563C13.8116 8.92537 13.8219 8.90216 13.8341 8.87495L15.5294 9.63084ZM13.9513 10.2031L13.9477 10.2L15.1609 8.79517L15.1645 8.79828L13.9513 10.2031ZM15.3743 9.93217C15.2291 10.2063 14.8144 10.924 13.6333 12.969L12.0259 12.0407C13.2236 9.96691 13.6099 9.2976 13.7342 9.06297L15.3743 9.93217ZM13.6329 12.9697C13.7071 12.8414 13.7278 12.6865 13.6896 12.5428L11.8957 13.0196C11.8077 12.6883 11.8543 12.3373 12.0263 12.04L13.6329 12.9697ZM13.6889 12.5399C13.6507 12.3981 13.5568 12.274 13.4262 12.1986L12.4982 13.8062C12.2001 13.6341 11.9852 13.3519 11.8965 13.0225L13.6889 12.5399ZM13.4245 12.1976C13.3189 12.137 13.2161 12.1374 13.1452 12.1565C13.0745 12.1755 12.9839 12.227 12.9218 12.3351L14.5317 13.2591C14.1272 13.9638 13.2028 14.2109 12.5 13.8072L13.4245 12.1976ZM12.9231 12.3329L13.9167 10.6126L15.5241 11.541L14.5304 13.2613L12.9231 12.3329ZM13.9173 10.6116C14.1854 10.1488 14.7325 9.91721 15.2574 10.0593L14.7725 11.851C15.0671 11.9307 15.3742 11.7998 15.5235 11.542L13.9173 10.6116ZM15.2551 10.0586C15.7758 10.1981 16.137 10.67 16.137 11.208H14.2809C14.2809 11.5092 14.483 11.7734 14.7748 11.8516L15.2551 10.0586ZM16.137 11.208V16.6161H14.2809V11.208H16.137ZM16.137 16.6161C16.137 16.5104 16.0979 16.4142 16.0335 16.3407C15.9693 16.2672 15.856 16.1914 15.6991 16.181L15.5772 18.0332C14.7959 17.9818 14.2809 17.3012 14.2809 16.6161H16.137ZM15.6871 16.1803C15.5775 16.1745 15.4435 16.2147 15.3418 16.3163L16.6531 17.63C16.3601 17.9225 15.9716 18.0541 15.5891 18.0339L15.6871 16.1803ZM15.3412 16.3169C15.2531 16.4049 15.2041 16.5256 15.2041 16.6466H17.0603C17.0603 17.0152 16.9156 17.3675 16.6537 17.6294L15.3412 16.3169ZM15.2041 16.6466V13.1096H17.0603V16.6466H15.2041ZM15.2041 13.1096C15.2041 12.4524 15.7369 11.9196 16.3941 11.9196V13.7758C16.7621 13.7758 17.0603 13.4776 17.0603 13.1096H15.2041ZM16.3941 11.9196C17.051 11.9196 17.5841 12.4519 17.5841 13.1096H15.7279C15.7279 13.4778 16.0266 13.7758 16.3941 13.7758V11.9196ZM17.5841 13.1097L17.584 17.4506L15.7278 17.4505L15.7279 13.1096L17.5841 13.1097ZM17.584 17.4506C17.584 17.1925 17.3756 16.9841 17.1175 16.9841V18.8403C16.3504 18.8403 15.7278 18.2177 15.7278 17.4506H17.584ZM17.1175 16.9841C16.9967 16.9841 16.8766 17.0328 16.7887 17.1205L18.1 18.4343C17.8379 18.6959 17.4856 18.8403 17.1175 18.8403V16.9841ZM16.7875 17.1218C16.6997 17.2097 16.6511 17.3298 16.6511 17.4506H18.5072C18.5072 17.8187 18.3628 18.171 18.1012 18.4331L16.7875 17.1218ZM16.6511 17.4506V13.1096H18.5072V17.4506H16.6511ZM16.6511 13.1096C16.6511 12.4528 17.1833 11.9196 17.841 11.9196V13.7758C18.2092 13.7758 18.5072 13.4772 18.5072 13.1096H16.6511ZM17.841 11.9196C18.4979 11.9196 19.031 12.4519 19.031 13.1096H17.1748C17.1748 13.4778 17.4735 13.7758 17.841 13.7758V11.9196ZM19.031 13.1097L19.0309 16.606L17.1747 16.6059L17.1748 13.1096L19.031 13.1097ZM19.0309 16.6059V16.6466H17.1747V16.6059H19.0309ZM19.0309 16.6466C19.0309 16.3879 18.822 16.18 18.5646 16.18V18.0362C17.7978 18.0362 17.1747 17.414 17.1747 16.6466H19.0309ZM18.5646 16.18C18.4413 16.18 18.3219 16.2301 18.2364 16.3153L19.5464 17.6303C19.2858 17.8899 18.9349 18.0362 18.5646 18.0362V16.18ZM18.2358 16.3159C18.147 16.4045 18.0981 16.5256 18.0981 16.6464H19.9543C19.9543 17.0149 19.8097 17.3675 19.5471 17.6297L18.2358 16.3159ZM18.0981 16.6464V13.1094H19.9543V16.6464H18.0981ZM18.0981 13.1094C18.0981 12.4526 18.6304 11.9195 19.2881 11.9195V13.7756C19.6562 13.7756 19.9543 13.477 19.9543 13.1094H18.0981ZM19.2881 11.9195C19.9449 11.9195 20.4781 12.4517 20.4781 13.1094H18.6219C18.6219 13.4776 18.9206 13.7756 19.2881 13.7756V11.9195ZM20.4781 13.1096L20.4778 15.7794L18.6216 15.7791L18.6219 13.1093L20.4781 13.1096ZM20.4778 15.7793C20.4778 15.5218 20.2698 15.313 20.0111 15.313V17.1692C19.2438 17.1692 18.6216 16.5461 18.6216 15.7793H20.4778ZM20.0111 15.313C19.8894 15.313 19.7693 15.3623 19.682 15.4494L20.9933 16.7631C20.7322 17.0238 20.3805 17.1692 20.0111 17.1692V15.313ZM19.6814 15.45C19.593 15.5384 19.5445 15.659 19.5445 15.7793H21.4007C21.4007 16.1468 21.2568 16.4997 20.9939 16.7625L19.6814 15.45ZM19.5445 15.7792L19.5447 10.3677L21.4009 10.3678L21.4007 15.7793L19.5445 15.7792ZM19.5447 10.3678C19.5447 8.99103 18.5437 8.02256 17.4948 8.02256V6.16637C19.7302 6.16637 21.4009 8.13505 21.4009 10.3678H19.5447ZM16.6024 6.8395L16.6025 6.83944L18.3872 7.34938L18.3872 7.34943L16.6024 6.8395Z" fill="#4CAF4F" mask="url(#path-1-inside-1_211_2338)"/>
<path d="M11.5286 21.7395C11.4043 21.8142 11.2436 21.7739 11.1693 21.6498C11.0948 21.5258 11.1352 21.3649 11.259 21.2905M11.5286 21.7395L13.7912 18.6949C14.0098 18.5636 14.2981 18.6154 14.4329 18.8104M11.5286 21.7395L14.5615 19.92H14.5616L14.562 19.9198M11.5286 21.7395L15.726 20.2981C15.8319 20.2345 15.9067 20.1338 15.9365 20.0143M11.259 21.2905L14.292 19.471C14.398 19.4073 14.4729 19.3065 14.5028 19.1872M11.259 21.2905L11.2897 21.3416L11.3937 21.515L11.3939 21.5154L11.4408 21.5935L11.4977 21.6884L11.4978 21.6883L11.4979 21.6883L11.4981 21.6881M11.259 21.2905L11.2897 21.3416M14.5028 19.1872C14.5356 19.0564 14.5106 18.9226 14.4329 18.8104M14.5028 19.1872L14.5776 19.206L14.5705 19.0521C14.5655 18.9462 14.5346 18.8522 14.4821 18.7767L14.482 18.7764L14.4329 18.8104M14.5028 19.1872L14.5776 19.206L14.585 19.3648L14.4332 19.4559H14.4329L14.3227 19.522L14.3227 19.522L14.3227 19.5221L11.2899 21.3415M14.4329 18.8104L14.482 18.7764L12.2426 22.9289C12.3379 22.8716 12.3694 22.7477 12.3116 22.6516C12.2544 22.5563 12.1301 22.5249 12.0344 22.5823L15.0673 20.7629C15.137 20.721 15.21 20.6894 15.2846 20.6677L15.755 20.3465L15.755 20.3465L15.7809 20.3288C15.8913 20.2534 15.9643 20.149 15.9943 20.0288L15.9943 20.0287L15.9365 20.0143M11.2899 21.3415C11.3853 21.2845 11.5095 21.3154 11.5671 21.4109C11.5672 21.4111 11.5674 21.4113 11.5675 21.4115C11.6247 21.5075 11.5931 21.631 11.4981 21.6881M11.2899 21.3415C11.2898 21.3416 11.2898 21.3416 11.2897 21.3416M11.2899 21.3415L11.2897 21.3416M11.4981 21.6881L14.5307 19.8689L14.5308 19.8689L14.531 19.8688C14.531 19.8687 14.5311 19.8687 14.5312 19.8686L14.5615 19.919L14.5616 19.9193L14.562 19.9198M11.4981 21.6881L11.3941 21.5152L11.3939 21.5149L11.3587 21.4564L11.2897 21.3416M14.562 19.9198V19.8493C14.6205 19.811 14.674 19.7666 14.7219 19.717L15.2211 19.4564L15.2211 19.4564L15.2487 19.442C15.329 19.4001 15.4099 19.3805 15.4868 19.3805C15.5284 19.3805 15.5712 19.3856 15.6149 19.3965C15.6149 19.3965 15.6149 19.3965 15.615 19.3965C15.6151 19.3965 15.6153 19.3966 15.6154 19.3966L15.7131 19.0042M14.562 19.9198L15.251 19.5064C15.3567 19.4431 15.4803 19.4245 15.6005 19.4544C15.7201 19.4842 15.8209 19.559 15.8844 19.6648C15.9479 19.7707 15.9664 19.8949 15.9365 20.0143M15.7131 19.0042C15.7131 19.0042 15.7131 19.0042 15.7131 19.0042M15.7131 19.0042C15.9522 19.064 16.1556 19.2149 16.2822 19.4259L16.3333 19.3953M15.7131 19.0042L15.7275 18.9463M15.7131 19.0042L15.615 19.3965C15.7508 19.4304 15.8633 19.5138 15.9354 19.634C15.9354 19.634 15.9354 19.6341 15.9355 19.6341C15.9355 19.6342 15.9355 19.6342 15.9355 19.6342C16.0078 19.7549 16.0282 19.8933 15.9943 20.0285L15.9943 20.0287L15.9365 20.0143M15.7131 19.0042C15.713 19.0042 15.713 19.0042 15.7129 19.0042L15.7123 19.004C15.6406 18.9862 15.568 18.9771 15.4957 18.9765M15.7131 19.0042L15.7275 18.9463M15.2754 21.1095L15.5371 20.9526L15.8068 21.1117C15.8876 21.1594 15.9487 21.2191 15.9899 21.288L15.9901 21.2883C15.9901 21.2883 15.9902 21.2884 15.9902 21.2885L15.9393 21.3191M15.2754 21.1095L16.0493 21.6831C16.083 21.5475 16.0624 21.4091 15.9902 21.2885L15.9393 21.3191M15.2754 21.1095L15.3061 21.1607M15.2754 21.1095L15.2754 21.1095L15.3061 21.1607M15.9393 21.3191C15.8083 21.1008 15.5241 21.0298 15.3061 21.1607M15.9393 21.3191C16.0029 21.4249 16.0215 21.5492 15.9916 21.6688L15.3061 21.1607M16.3815 21.0388C16.3837 21.0424 16.3859 21.046 16.3881 21.0497L16.3815 21.0388ZM16.3815 21.0388C16.3658 21.0511 16.3499 21.063 16.3337 21.0746C16.3348 21.0764 16.3359 21.0781 16.337 21.0799L16.3815 21.0388ZM16.3093 20.3311C16.3427 20.267 16.3688 20.1985 16.3867 20.1268L16.3093 20.3311ZM16.3093 20.3311C16.3259 20.3414 16.3424 20.3521 16.3588 20.3632C16.396 20.2939 16.4249 20.2196 16.4445 20.1412C16.5083 19.8861 16.4688 19.6213 16.3333 19.3953M16.3093 20.3311L16.3868 20.1267C16.4465 19.8876 16.4088 19.6373 16.2825 19.4263L16.2823 19.426C16.2823 19.426 16.2823 19.426 16.2822 19.4259L16.3333 19.3953M16.3333 19.3953C16.198 19.1697 15.9829 19.0101 15.7275 18.9463M15.7275 18.9463L15.4905 18.9165M15.4905 18.9165C15.4926 18.9365 15.4943 18.9565 15.4957 18.9765M15.4905 18.9165C15.4892 18.9165 15.488 18.9165 15.4868 18.9165C15.3299 18.9165 15.1757 18.9566 15.034 19.0306M15.4905 18.9165L15.034 19.0306M15.4957 18.9765C15.4964 18.9873 15.497 18.9982 15.4976 19.0091L15.4868 19.0096L15.1987 19.0229M15.4957 18.9765C15.4927 18.9764 15.4898 18.9764 15.4868 18.9764C15.3889 18.9765 15.2917 18.9922 15.1987 19.0229M15.1987 19.0229L15.034 19.0306M15.1987 19.0229C15.1514 19.0386 15.1052 19.0581 15.0605 19.0814C15.0443 19.0899 15.0283 19.0989 15.0125 19.1084L15.0123 19.1085L14.9793 19.1282M15.034 19.0306L14.7695 19.2541L14.7696 19.2541L14.9529 19.2999C14.9529 19.3 14.9529 19.3 14.9529 19.3001C14.9672 19.243 14.9759 19.1855 14.9793 19.1282M15.034 19.0306L14.9632 18.8949M15.034 19.0306C15.0267 18.8725 14.985 18.7168 14.905 18.5778C14.8868 18.5859 14.8688 18.5944 14.8509 18.6032M14.9793 19.1282C14.9812 19.0964 14.9814 19.0647 14.98 19.0331C14.9779 18.9865 14.9723 18.9404 14.9632 18.8949M14.9793 19.1282L14.9632 18.8949M14.9632 18.8949L14.8193 18.6192C14.8298 18.6137 14.8403 18.6084 14.8509 18.6032M14.9632 18.8949L14.8144 18.5462C14.8273 18.5648 14.8395 18.5838 14.8509 18.6032M14.9632 18.8949C14.9428 18.7928 14.905 18.6944 14.8509 18.6032M16.0426 20.712L16.1219 20.5775C16.0875 20.6097 16.0506 20.6393 16.0113 20.6662C15.9962 20.6765 15.9807 20.6864 15.9649 20.6959L15.9647 20.6961L15.9311 20.7162L16.0426 20.712ZM8.63176 18.5524L8.579 18.5246C8.5693 18.5421 8.54516 18.5856 8.50949 18.6499C8.50066 18.6658 8.49112 18.6829 8.48092 18.7013C8.49911 18.7104 8.51745 18.7183 8.53582 18.7253C8.56719 18.6687 8.59917 18.6111 8.63176 18.5524ZM12.7787 23.823C12.7787 23.8231 12.7786 23.8231 12.7786 23.8231L12.7787 23.823Z" fill="#4CAF4F" stroke="#4CAF4F" stroke-width="0.928093"/>
<path d="M24.4806 19.3885L24.4805 19.3885L24.4806 19.3885ZM24.4806 19.3885C24.3833 19.2143 24.3873 18.9998 24.4902 18.8281L24.4806 19.3885ZM18.7389 18.9762C18.6664 18.9768 18.5935 18.986 18.5216 19.004L18.7389 18.9762ZM18.7389 18.9762C18.7403 18.9563 18.7421 18.9363 18.7442 18.9163L18.7389 18.9762ZM24.0629 19.7139L24.0235 19.6429L24.0629 19.7139ZM22.9447 21.3414C22.9446 21.3414 22.9445 21.3413 22.9445 21.3413L22.9446 21.3413L22.9447 21.3414ZM21.4559 23.8234C21.4558 23.8233 21.4557 23.8233 21.4556 23.8232L21.4559 23.8234ZM21.4554 23.8231L21.4555 23.8232L21.4554 23.8231Z" fill="#4CAF4F" stroke="#4CAF4F" stroke-width="0.928093"/>
</svg>
