<svg width="34" height="34" viewBox="0 0 34 34" fill="none" xmlns="http://www.w3.org/2000/svg">
<path d="M4.13271 11.6341V11.9822H4.48074H29.5392H29.8873V11.6341V10.068C29.8873 9.2834 29.5756 8.53095 29.0208 7.97616C28.466 7.42137 27.7136 7.1097 26.929 7.1097H7.091C6.30641 7.1097 5.55396 7.42137 4.99917 7.97616C4.44438 8.53095 4.13271 9.2834 4.13271 10.068V11.6341ZM29.8873 13.7224V13.3743H29.5392H4.48074H4.13271V13.7224V23.6413C4.13271 24.4259 4.44438 25.1784 4.99917 25.7332C5.55396 26.288 6.30641 26.5996 7.091 26.5996H26.929C27.7136 26.5996 28.466 26.288 29.0208 25.7332C29.5756 25.1784 29.8873 24.4259 29.8873 23.6413V13.7224ZM2.74057 10.068C2.74057 8.91418 3.19892 7.80763 4.01478 6.99177C4.83064 6.1759 5.93719 5.71756 7.091 5.71756H26.929C28.0828 5.71756 29.1893 6.1759 30.0052 6.99177C30.8211 7.80763 31.2794 8.91418 31.2794 10.068V23.6413C31.2794 24.7952 30.8211 25.9017 30.0052 26.7176C29.1893 27.5334 28.0828 27.9918 26.929 27.9918H7.091C5.93719 27.9918 4.83064 27.5334 4.01478 26.7176C3.19892 25.9017 2.74057 24.7952 2.74057 23.6413V10.068ZM22.2305 20.335H25.3628C25.5474 20.335 25.7245 20.4084 25.855 20.5389C25.9856 20.6694 26.0589 20.8465 26.0589 21.0311C26.0589 21.2157 25.9856 21.3927 25.855 21.5233C25.7245 21.6538 25.5474 21.7272 25.3628 21.7272H22.2305C22.0459 21.7272 21.8689 21.6538 21.7383 21.5233C21.6078 21.3927 21.5344 21.2157 21.5344 21.0311C21.5344 20.8465 21.6078 20.6694 21.7383 20.5389C21.8689 20.4084 22.0459 20.335 22.2305 20.335Z" fill="#4CAF4F" stroke="#4CAF4F" stroke-width="0.696069"/>
</svg>
